<?xml version="1.0" standalone="no"?>
<!DOCTYPE svg PUBLIC "-//W3C//DTD SVG 20010904//EN"
 "http://www.w3.org/TR/2001/REC-SVG-20010904/DTD/svg10.dtd">
<svg version="1.0" xmlns="http://www.w3.org/2000/svg"
 width="1280.000000pt" height="1280.000000pt" viewBox="0 0 1280.000000 1280.000000"
 preserveAspectRatio="xMidYMid meet">
<g transform="translate(0.000000,1280.000000) scale(0.100000,-0.100000)"
fill="#000000" stroke="none">
<path d="M4773 11214 c-20 -9 -18 -1233 1 -1325 19 -87 75 -197 122 -239 81
-71 171 -87 535 -95 790 -17 1334 -107 1670 -275 267 -133 395 -302 415 -549
12 -146 -22 -295 -90 -393 -111 -163 -325 -274 -916 -473 -102 -34 -236 -83
-299 -110 -103 -43 -116 -52 -141 -92 -31 -48 -55 -137 -70 -253 -5 -41 -10
-378 -10 -748 l0 -673 158 3 157 3 36 280 c45 355 68 425 165 499 24 19 208
116 407 217 482 243 608 322 760 475 237 241 359 609 374 1129 20 682 -159
1229 -531 1622 -152 161 -312 279 -501 369 -279 134 -592 193 -1377 259 -188
16 -319 36 -406 61 -91 26 -168 113 -183 205 -4 27 -14 61 -21 76 l-13 28
-115 2 c-63 1 -121 -1 -127 -3z"/>
<path d="M5991 5320 c-255 -54 -472 -227 -596 -475 -61 -122 -77 -186 -82
-340 -9 -261 55 -422 242 -610 178 -178 341 -246 590 -246 143 0 235 20 360
81 186 91 335 250 410 437 64 158 72 384 21 558 -85 283 -304 506 -571 580
-70 20 -307 29 -374 15z"/>
</g>
</svg>
